<mxfile host="Electron" modified="2023-09-10T19:43:02.509Z" agent="Mozilla/5.0 (Windows NT 10.0; Win64; x64) AppleWebKit/537.36 (KHTML, like Gecko) draw.io/21.6.8 Chrome/114.0.5735.289 Electron/25.5.0 Safari/537.36" etag="GblTzArxX34HQWORqfUv" version="21.6.8" type="device">
  <diagram id="_xgf0HqLN5BFNFYjB_J0" name="Página-2">
    <mxGraphModel dx="1418" dy="827" grid="1" gridSize="10" guides="1" tooltips="1" connect="1" arrows="1" fold="1" page="1" pageScale="1" pageWidth="827" pageHeight="1169" math="0" shadow="0">
      <root>
        <mxCell id="0" />
        <mxCell id="1" parent="0" />
        <mxCell id="03LTj7T0e2cefYrmrZnI-1" value="&lt;blockquote style=&quot;margin: 0 0 0 40px; border: none; padding: 0px;&quot;&gt;Sistema&lt;/blockquote&gt;" style="verticalAlign=top;align=left;spacingTop=8;spacingLeft=2;spacingRight=12;shape=cube;size=10;direction=south;fontStyle=4;html=1;whiteSpace=wrap;" parent="1" vertex="1">
          <mxGeometry x="144.5" y="140" width="520" height="290" as="geometry" />
        </mxCell>
        <mxCell id="03LTj7T0e2cefYrmrZnI-2" value="Paciente" style="shape=umlActor;verticalLabelPosition=bottom;verticalAlign=top;html=1;outlineConnect=0;" parent="1" vertex="1">
          <mxGeometry x="80" y="225" width="30" height="60" as="geometry" />
        </mxCell>
        <mxCell id="03LTj7T0e2cefYrmrZnI-3" value="Ingresar datos de cita médica" style="ellipse;whiteSpace=wrap;html=1;" parent="1" vertex="1">
          <mxGeometry x="190" y="230" width="130" height="50" as="geometry" />
        </mxCell>
        <mxCell id="03LTj7T0e2cefYrmrZnI-4" value="Seleccionar cita médica" style="ellipse;whiteSpace=wrap;html=1;" parent="1" vertex="1">
          <mxGeometry x="349" y="310" width="111" height="55" as="geometry" />
        </mxCell>
        <mxCell id="03LTj7T0e2cefYrmrZnI-5" value="" style="endArrow=none;html=1;rounded=0;entryX=0;entryY=0.5;entryDx=0;entryDy=0;" parent="1" source="03LTj7T0e2cefYrmrZnI-2" target="03LTj7T0e2cefYrmrZnI-3" edge="1">
          <mxGeometry width="50" height="50" relative="1" as="geometry">
            <mxPoint x="40" y="400" as="sourcePoint" />
            <mxPoint x="90" y="350" as="targetPoint" />
          </mxGeometry>
        </mxCell>
        <mxCell id="03LTj7T0e2cefYrmrZnI-6" value="" style="endArrow=block;dashed=1;endFill=0;endSize=12;html=1;rounded=0;exitX=1;exitY=1;exitDx=0;exitDy=0;entryX=0;entryY=0.5;entryDx=0;entryDy=0;" parent="1" source="03LTj7T0e2cefYrmrZnI-3" target="03LTj7T0e2cefYrmrZnI-4" edge="1">
          <mxGeometry width="160" relative="1" as="geometry">
            <mxPoint x="80" y="430" as="sourcePoint" />
            <mxPoint x="240" y="430" as="targetPoint" />
          </mxGeometry>
        </mxCell>
        <mxCell id="03LTj7T0e2cefYrmrZnI-7" value="Include" style="edgeLabel;html=1;align=center;verticalAlign=middle;resizable=0;points=[];" parent="03LTj7T0e2cefYrmrZnI-6" connectable="0" vertex="1">
          <mxGeometry x="0.0798" y="2" relative="1" as="geometry">
            <mxPoint as="offset" />
          </mxGeometry>
        </mxCell>
        <mxCell id="03LTj7T0e2cefYrmrZnI-8" value="Mostrar información de cita médica" style="ellipse;whiteSpace=wrap;html=1;" parent="1" vertex="1">
          <mxGeometry x="480" y="220" width="120" height="60" as="geometry" />
        </mxCell>
        <mxCell id="03LTj7T0e2cefYrmrZnI-9" value="Extend" style="endArrow=open;endFill=1;endSize=12;html=1;rounded=0;exitX=0.5;exitY=1;exitDx=0;exitDy=0;entryX=1;entryY=0.5;entryDx=0;entryDy=0;" parent="1" source="03LTj7T0e2cefYrmrZnI-8" target="03LTj7T0e2cefYrmrZnI-4" edge="1">
          <mxGeometry x="0.0004" width="160" relative="1" as="geometry">
            <mxPoint x="290" y="60" as="sourcePoint" />
            <mxPoint x="300" y="230" as="targetPoint" />
            <Array as="points" />
            <mxPoint as="offset" />
          </mxGeometry>
        </mxCell>
      </root>
    </mxGraphModel>
  </diagram>
</mxfile>
